ISO-10303-21;
HEADER;
FILE_DESCRIPTION(('FreeCAD Model'),'2;1');
FILE_NAME('Open CASCADE Shape Model','2026-09-24T08:14:01',(''),(''),
  'Open CASCADE STEP processor 7.8','FreeCAD','Unknown');
FILE_SCHEMA(('AUTOMOTIVE_DESIGN { 1 0 10303 214 1 1 1 1 }'));
ENDSEC;
DATA;
#1 = APPLICATION_PROTOCOL_DEFINITION('international standard',
  'automotive_design',2000,#2);
#2 = APPLICATION_CONTEXT(
  'core data for automotive mechanical design processes');
#3 = SHAPE_DEFINITION_REPRESENTATION(#4,#10);
#4 = PRODUCT_DEFINITION_SHAPE('','',#5);
#5 = PRODUCT_DEFINITION('design','',#6,#9);
#6 = PRODUCT_DEFINITION_FORMATION('','',#7);
#7 = PRODUCT('Lid','Lid','',(#8));
#8 = PRODUCT_CONTEXT('',#2,'mechanical');
#9 = PRODUCT_DEFINITION_CONTEXT('part definition',#2,'design');
#10 = ADVANCED_BREP_SHAPE_REPRESENTATION('',(#11,#15),#1109);
#11 = AXIS2_PLACEMENT_3D('',#12,#13,#14);
#12 = CARTESIAN_POINT('',(0.,0.,0.));
#13 = DIRECTION('',(0.,0.,1.));
#14 = DIRECTION('',(1.,0.,-0.));
#15 = MANIFOLD_SOLID_BREP('',#16);
#16 = CLOSED_SHELL('',(#17,#57,#88,#119,#170,#187,#199,#230,#254,#278,
    #295,#405,#436,#483,#555,#579,#644,#668,#708,#720,#737,#759,#776,
    #788,#805,#822,#834,#906,#930,#995,#1017,#1034,#1046,#1063,#1080,
    #1097));
#17 = ADVANCED_FACE('',(#18),#52,.F.);
#18 = FACE_BOUND('',#19,.F.);
#19 = EDGE_LOOP('',(#20,#30,#38,#46));
#20 = ORIENTED_EDGE('',*,*,#21,.T.);
#21 = EDGE_CURVE('',#22,#24,#26,.T.);
#22 = VERTEX_POINT('',#23);
#23 = CARTESIAN_POINT('',(52.5,50.,50.));
#24 = VERTEX_POINT('',#25);
#25 = CARTESIAN_POINT('',(52.5,50.,57.));
#26 = LINE('',#27,#28);
#27 = CARTESIAN_POINT('',(52.5,50.,50.));
#28 = VECTOR('',#29,1.);
#29 = DIRECTION('',(0.,0.,1.));
#30 = ORIENTED_EDGE('',*,*,#31,.T.);
#31 = EDGE_CURVE('',#24,#32,#34,.T.);
#32 = VERTEX_POINT('',#33);
#33 = CARTESIAN_POINT('',(-52.5,50.,57.));
#34 = LINE('',#35,#36);
#35 = CARTESIAN_POINT('',(52.5,50.,57.));
#36 = VECTOR('',#37,1.);
#37 = DIRECTION('',(-1.,0.,0.));
#38 = ORIENTED_EDGE('',*,*,#39,.F.);
#39 = EDGE_CURVE('',#40,#32,#42,.T.);
#40 = VERTEX_POINT('',#41);
#41 = CARTESIAN_POINT('',(-52.5,50.,50.));
#42 = LINE('',#43,#44);
#43 = CARTESIAN_POINT('',(-52.5,50.,50.));
#44 = VECTOR('',#45,1.);
#45 = DIRECTION('',(0.,0.,1.));
#46 = ORIENTED_EDGE('',*,*,#47,.F.);
#47 = EDGE_CURVE('',#22,#40,#48,.T.);
#48 = LINE('',#49,#50);
#49 = CARTESIAN_POINT('',(52.5,50.,50.));
#50 = VECTOR('',#51,1.);
#51 = DIRECTION('',(-1.,0.,0.));
#52 = PLANE('',#53);
#53 = AXIS2_PLACEMENT_3D('',#54,#55,#56);
#54 = CARTESIAN_POINT('',(52.5,50.,50.));
#55 = DIRECTION('',(0.,-1.,0.));
#56 = DIRECTION('',(-1.,0.,0.));
#57 = ADVANCED_FACE('',(#58),#83,.F.);
#58 = FACE_BOUND('',#59,.F.);
#59 = EDGE_LOOP('',(#60,#70,#76,#77));
#60 = ORIENTED_EDGE('',*,*,#61,.T.);
#61 = EDGE_CURVE('',#62,#64,#66,.T.);
#62 = VERTEX_POINT('',#63);
#63 = CARTESIAN_POINT('',(52.5,-50.,50.));
#64 = VERTEX_POINT('',#65);
#65 = CARTESIAN_POINT('',(52.5,-50.,57.));
#66 = LINE('',#67,#68);
#67 = CARTESIAN_POINT('',(52.5,-50.,50.));
#68 = VECTOR('',#69,1.);
#69 = DIRECTION('',(0.,0.,1.));
#70 = ORIENTED_EDGE('',*,*,#71,.T.);
#71 = EDGE_CURVE('',#64,#24,#72,.T.);
#72 = LINE('',#73,#74);
#73 = CARTESIAN_POINT('',(52.5,-50.,57.));
#74 = VECTOR('',#75,1.);
#75 = DIRECTION('',(0.,1.,0.));
#76 = ORIENTED_EDGE('',*,*,#21,.F.);
#77 = ORIENTED_EDGE('',*,*,#78,.F.);
#78 = EDGE_CURVE('',#62,#22,#79,.T.);
#79 = LINE('',#80,#81);
#80 = CARTESIAN_POINT('',(52.5,-50.,50.));
#81 = VECTOR('',#82,1.);
#82 = DIRECTION('',(0.,1.,0.));
#83 = PLANE('',#84);
#84 = AXIS2_PLACEMENT_3D('',#85,#86,#87);
#85 = CARTESIAN_POINT('',(52.5,-50.,50.));
#86 = DIRECTION('',(-1.,0.,0.));
#87 = DIRECTION('',(0.,1.,0.));
#88 = ADVANCED_FACE('',(#89),#114,.F.);
#89 = FACE_BOUND('',#90,.F.);
#90 = EDGE_LOOP('',(#91,#92,#100,#108));
#91 = ORIENTED_EDGE('',*,*,#39,.T.);
#92 = ORIENTED_EDGE('',*,*,#93,.T.);
#93 = EDGE_CURVE('',#32,#94,#96,.T.);
#94 = VERTEX_POINT('',#95);
#95 = CARTESIAN_POINT('',(-52.5,-50.,57.));
#96 = LINE('',#97,#98);
#97 = CARTESIAN_POINT('',(-52.5,50.,57.));
#98 = VECTOR('',#99,1.);
#99 = DIRECTION('',(0.,-1.,0.));
#100 = ORIENTED_EDGE('',*,*,#101,.F.);
#101 = EDGE_CURVE('',#102,#94,#104,.T.);
#102 = VERTEX_POINT('',#103);
#103 = CARTESIAN_POINT('',(-52.5,-50.,50.));
#104 = LINE('',#105,#106);
#105 = CARTESIAN_POINT('',(-52.5,-50.,50.));
#106 = VECTOR('',#107,1.);
#107 = DIRECTION('',(0.,0.,1.));
#108 = ORIENTED_EDGE('',*,*,#109,.F.);
#109 = EDGE_CURVE('',#40,#102,#110,.T.);
#110 = LINE('',#111,#112);
#111 = CARTESIAN_POINT('',(-52.5,50.,50.));
#112 = VECTOR('',#113,1.);
#113 = DIRECTION('',(0.,-1.,0.));
#114 = PLANE('',#115);
#115 = AXIS2_PLACEMENT_3D('',#116,#117,#118);
#116 = CARTESIAN_POINT('',(-52.5,50.,50.));
#117 = DIRECTION('',(1.,0.,0.));
#118 = DIRECTION('',(0.,-1.,0.));
#119 = ADVANCED_FACE('',(#120,#131),#165,.F.);
#120 = FACE_BOUND('',#121,.F.);
#121 = EDGE_LOOP('',(#122,#123,#124,#130));
#122 = ORIENTED_EDGE('',*,*,#47,.T.);
#123 = ORIENTED_EDGE('',*,*,#109,.T.);
#124 = ORIENTED_EDGE('',*,*,#125,.T.);
#125 = EDGE_CURVE('',#102,#62,#126,.T.);
#126 = LINE('',#127,#128);
#127 = CARTESIAN_POINT('',(-52.5,-50.,50.));
#128 = VECTOR('',#129,1.);
#129 = DIRECTION('',(1.,0.,0.));
#130 = ORIENTED_EDGE('',*,*,#78,.T.);
#131 = FACE_BOUND('',#132,.F.);
#132 = EDGE_LOOP('',(#133,#143,#151,#159));
#133 = ORIENTED_EDGE('',*,*,#134,.F.);
#134 = EDGE_CURVE('',#135,#137,#139,.T.);
#135 = VERTEX_POINT('',#136);
#136 = CARTESIAN_POINT('',(51.,-48.5,50.));
#137 = VERTEX_POINT('',#138);
#138 = CARTESIAN_POINT('',(51.,48.5,50.));
#139 = LINE('',#140,#141);
#140 = CARTESIAN_POINT('',(51.,-48.5,50.));
#141 = VECTOR('',#142,1.);
#142 = DIRECTION('',(0.,1.,0.));
#143 = ORIENTED_EDGE('',*,*,#144,.F.);
#144 = EDGE_CURVE('',#145,#135,#147,.T.);
#145 = VERTEX_POINT('',#146);
#146 = CARTESIAN_POINT('',(-51.,-48.5,50.));
#147 = LINE('',#148,#149);
#148 = CARTESIAN_POINT('',(-51.,-48.5,50.));
#149 = VECTOR('',#150,1.);
#150 = DIRECTION('',(1.,0.,0.));
#151 = ORIENTED_EDGE('',*,*,#152,.F.);
#152 = EDGE_CURVE('',#153,#145,#155,.T.);
#153 = VERTEX_POINT('',#154);
#154 = CARTESIAN_POINT('',(-51.,48.5,50.));
#155 = LINE('',#156,#157);
#156 = CARTESIAN_POINT('',(-51.,48.5,50.));
#157 = VECTOR('',#158,1.);
#158 = DIRECTION('',(0.,-1.,0.));
#159 = ORIENTED_EDGE('',*,*,#160,.F.);
#160 = EDGE_CURVE('',#137,#153,#161,.T.);
#161 = LINE('',#162,#163);
#162 = CARTESIAN_POINT('',(51.,48.5,50.));
#163 = VECTOR('',#164,1.);
#164 = DIRECTION('',(-1.,0.,0.));
#165 = PLANE('',#166);
#166 = AXIS2_PLACEMENT_3D('',#167,#168,#169);
#167 = CARTESIAN_POINT('',(0.,0.,50.));
#168 = DIRECTION('',(0.,0.,1.));
#169 = DIRECTION('',(1.,0.,0.));
#170 = ADVANCED_FACE('',(#171),#182,.T.);
#171 = FACE_BOUND('',#172,.T.);
#172 = EDGE_LOOP('',(#173,#174,#175,#181));
#173 = ORIENTED_EDGE('',*,*,#31,.T.);
#174 = ORIENTED_EDGE('',*,*,#93,.T.);
#175 = ORIENTED_EDGE('',*,*,#176,.T.);
#176 = EDGE_CURVE('',#94,#64,#177,.T.);
#177 = LINE('',#178,#179);
#178 = CARTESIAN_POINT('',(-52.5,-50.,57.));
#179 = VECTOR('',#180,1.);
#180 = DIRECTION('',(1.,0.,0.));
#181 = ORIENTED_EDGE('',*,*,#71,.T.);
#182 = PLANE('',#183);
#183 = AXIS2_PLACEMENT_3D('',#184,#185,#186);
#184 = CARTESIAN_POINT('',(0.,0.,57.));
#185 = DIRECTION('',(0.,0.,1.));
#186 = DIRECTION('',(1.,0.,0.));
#187 = ADVANCED_FACE('',(#188),#194,.F.);
#188 = FACE_BOUND('',#189,.F.);
#189 = EDGE_LOOP('',(#190,#191,#192,#193));
#190 = ORIENTED_EDGE('',*,*,#101,.T.);
#191 = ORIENTED_EDGE('',*,*,#176,.T.);
#192 = ORIENTED_EDGE('',*,*,#61,.F.);
#193 = ORIENTED_EDGE('',*,*,#125,.F.);
#194 = PLANE('',#195);
#195 = AXIS2_PLACEMENT_3D('',#196,#197,#198);
#196 = CARTESIAN_POINT('',(-52.5,-50.,50.));
#197 = DIRECTION('',(0.,1.,0.));
#198 = DIRECTION('',(1.,0.,0.));
#199 = ADVANCED_FACE('',(#200),#225,.T.);
#200 = FACE_BOUND('',#201,.T.);
#201 = EDGE_LOOP('',(#202,#210,#218,#224));
#202 = ORIENTED_EDGE('',*,*,#203,.T.);
#203 = EDGE_CURVE('',#135,#204,#206,.T.);
#204 = VERTEX_POINT('',#205);
#205 = CARTESIAN_POINT('',(51.,-48.5,47.));
#206 = LINE('',#207,#208);
#207 = CARTESIAN_POINT('',(51.,-48.5,50.));
#208 = VECTOR('',#209,1.);
#209 = DIRECTION('',(-0.,-0.,-1.));
#210 = ORIENTED_EDGE('',*,*,#211,.T.);
#211 = EDGE_CURVE('',#204,#212,#214,.T.);
#212 = VERTEX_POINT('',#213);
#213 = CARTESIAN_POINT('',(51.,48.5,47.));
#214 = LINE('',#215,#216);
#215 = CARTESIAN_POINT('',(51.,-48.5,47.));
#216 = VECTOR('',#217,1.);
#217 = DIRECTION('',(0.,1.,0.));
#218 = ORIENTED_EDGE('',*,*,#219,.F.);
#219 = EDGE_CURVE('',#137,#212,#220,.T.);
#220 = LINE('',#221,#222);
#221 = CARTESIAN_POINT('',(51.,48.5,50.));
#222 = VECTOR('',#223,1.);
#223 = DIRECTION('',(-0.,-0.,-1.));
#224 = ORIENTED_EDGE('',*,*,#134,.F.);
#225 = PLANE('',#226);
#226 = AXIS2_PLACEMENT_3D('',#227,#228,#229);
#227 = CARTESIAN_POINT('',(51.,-48.5,50.));
#228 = DIRECTION('',(1.,0.,0.));
#229 = DIRECTION('',(0.,1.,0.));
#230 = ADVANCED_FACE('',(#231),#249,.T.);
#231 = FACE_BOUND('',#232,.T.);
#232 = EDGE_LOOP('',(#233,#234,#242,#248));
#233 = ORIENTED_EDGE('',*,*,#219,.T.);
#234 = ORIENTED_EDGE('',*,*,#235,.T.);
#235 = EDGE_CURVE('',#212,#236,#238,.T.);
#236 = VERTEX_POINT('',#237);
#237 = CARTESIAN_POINT('',(-51.,48.5,47.));
#238 = LINE('',#239,#240);
#239 = CARTESIAN_POINT('',(51.,48.5,47.));
#240 = VECTOR('',#241,1.);
#241 = DIRECTION('',(-1.,0.,0.));
#242 = ORIENTED_EDGE('',*,*,#243,.F.);
#243 = EDGE_CURVE('',#153,#236,#244,.T.);
#244 = LINE('',#245,#246);
#245 = CARTESIAN_POINT('',(-51.,48.5,50.));
#246 = VECTOR('',#247,1.);
#247 = DIRECTION('',(-0.,-0.,-1.));
#248 = ORIENTED_EDGE('',*,*,#160,.F.);
#249 = PLANE('',#250);
#250 = AXIS2_PLACEMENT_3D('',#251,#252,#253);
#251 = CARTESIAN_POINT('',(51.,48.5,50.));
#252 = DIRECTION('',(0.,1.,0.));
#253 = DIRECTION('',(-1.,0.,0.));
#254 = ADVANCED_FACE('',(#255),#273,.T.);
#255 = FACE_BOUND('',#256,.T.);
#256 = EDGE_LOOP('',(#257,#258,#266,#272));
#257 = ORIENTED_EDGE('',*,*,#243,.T.);
#258 = ORIENTED_EDGE('',*,*,#259,.T.);
#259 = EDGE_CURVE('',#236,#260,#262,.T.);
#260 = VERTEX_POINT('',#261);
#261 = CARTESIAN_POINT('',(-51.,-48.5,47.));
#262 = LINE('',#263,#264);
#263 = CARTESIAN_POINT('',(-51.,48.5,47.));
#264 = VECTOR('',#265,1.);
#265 = DIRECTION('',(0.,-1.,0.));
#266 = ORIENTED_EDGE('',*,*,#267,.F.);
#267 = EDGE_CURVE('',#145,#260,#268,.T.);
#268 = LINE('',#269,#270);
#269 = CARTESIAN_POINT('',(-51.,-48.5,50.));
#270 = VECTOR('',#271,1.);
#271 = DIRECTION('',(-0.,-0.,-1.));
#272 = ORIENTED_EDGE('',*,*,#152,.F.);
#273 = PLANE('',#274);
#274 = AXIS2_PLACEMENT_3D('',#275,#276,#277);
#275 = CARTESIAN_POINT('',(-51.,48.5,50.));
#276 = DIRECTION('',(-1.,0.,0.));
#277 = DIRECTION('',(0.,-1.,0.));
#278 = ADVANCED_FACE('',(#279),#290,.T.);
#279 = FACE_BOUND('',#280,.T.);
#280 = EDGE_LOOP('',(#281,#282,#288,#289));
#281 = ORIENTED_EDGE('',*,*,#267,.T.);
#282 = ORIENTED_EDGE('',*,*,#283,.T.);
#283 = EDGE_CURVE('',#260,#204,#284,.T.);
#284 = LINE('',#285,#286);
#285 = CARTESIAN_POINT('',(-51.,-48.5,47.));
#286 = VECTOR('',#287,1.);
#287 = DIRECTION('',(1.,0.,0.));
#288 = ORIENTED_EDGE('',*,*,#203,.F.);
#289 = ORIENTED_EDGE('',*,*,#144,.F.);
#290 = PLANE('',#291);
#291 = AXIS2_PLACEMENT_3D('',#292,#293,#294);
#292 = CARTESIAN_POINT('',(-51.,-48.5,50.));
#293 = DIRECTION('',(0.,-1.,0.));
#294 = DIRECTION('',(1.,0.,0.));
#295 = ADVANCED_FACE('',(#296,#302),#400,.T.);
#296 = FACE_BOUND('',#297,.T.);
#297 = EDGE_LOOP('',(#298,#299,#300,#301));
#298 = ORIENTED_EDGE('',*,*,#211,.F.);
#299 = ORIENTED_EDGE('',*,*,#283,.F.);
#300 = ORIENTED_EDGE('',*,*,#259,.F.);
#301 = ORIENTED_EDGE('',*,*,#235,.F.);
#302 = FACE_BOUND('',#303,.T.);
#303 = EDGE_LOOP('',(#304,#314,#322,#330,#338,#346,#354,#362,#370,#378,
    #386,#394));
#304 = ORIENTED_EDGE('',*,*,#305,.T.);
#305 = EDGE_CURVE('',#306,#308,#310,.T.);
#306 = VERTEX_POINT('',#307);
#307 = CARTESIAN_POINT('',(-49.5,-46.99999999996,47.));
#308 = VERTEX_POINT('',#309);
#309 = CARTESIAN_POINT('',(49.500000000062,-46.99999999996,47.));
#310 = LINE('',#311,#312);
#311 = CARTESIAN_POINT('',(-49.5,-46.99999999996,47.));
#312 = VECTOR('',#313,1.);
#313 = DIRECTION('',(1.,0.,0.));
#314 = ORIENTED_EDGE('',*,*,#315,.T.);
#315 = EDGE_CURVE('',#308,#316,#318,.T.);
#316 = VERTEX_POINT('',#317);
#317 = CARTESIAN_POINT('',(49.500000000062,-10.,47.));
#318 = LINE('',#319,#320);
#319 = CARTESIAN_POINT('',(49.500000000062,-46.99999999996,47.));
#320 = VECTOR('',#321,1.);
#321 = DIRECTION('',(0.,1.,0.));
#322 = ORIENTED_EDGE('',*,*,#323,.F.);
#323 = EDGE_CURVE('',#324,#316,#326,.T.);
#324 = VERTEX_POINT('',#325);
#325 = CARTESIAN_POINT('',(49.3,-10.,47.));
#326 = LINE('',#327,#328);
#327 = CARTESIAN_POINT('',(49.3,-10.,47.));
#328 = VECTOR('',#329,1.);
#329 = DIRECTION('',(1.,-2.2E-16,2.2E-16));
#330 = ORIENTED_EDGE('',*,*,#331,.T.);
#331 = EDGE_CURVE('',#324,#332,#334,.T.);
#332 = VERTEX_POINT('',#333);
#333 = CARTESIAN_POINT('',(49.3,10.,47.));
#334 = LINE('',#335,#336);
#335 = CARTESIAN_POINT('',(49.3,-10.,47.));
#336 = VECTOR('',#337,1.);
#337 = DIRECTION('',(2.2E-16,1.,-2.2E-16));
#338 = ORIENTED_EDGE('',*,*,#339,.T.);
#339 = EDGE_CURVE('',#332,#340,#342,.T.);
#340 = VERTEX_POINT('',#341);
#341 = CARTESIAN_POINT('',(49.500000000062,10.,47.));
#342 = LINE('',#343,#344);
#343 = CARTESIAN_POINT('',(49.3,10.,47.));
#344 = VECTOR('',#345,1.);
#345 = DIRECTION('',(1.,-2.2E-16,2.2E-16));
#346 = ORIENTED_EDGE('',*,*,#347,.T.);
#347 = EDGE_CURVE('',#340,#348,#350,.T.);
#348 = VERTEX_POINT('',#349);
#349 = CARTESIAN_POINT('',(49.500000000062,47.,47.));
#350 = LINE('',#351,#352);
#351 = CARTESIAN_POINT('',(49.500000000062,-46.99999999996,47.));
#352 = VECTOR('',#353,1.);
#353 = DIRECTION('',(0.,1.,0.));
#354 = ORIENTED_EDGE('',*,*,#355,.T.);
#355 = EDGE_CURVE('',#348,#356,#358,.T.);
#356 = VERTEX_POINT('',#357);
#357 = CARTESIAN_POINT('',(-49.5,47.,47.));
#358 = LINE('',#359,#360);
#359 = CARTESIAN_POINT('',(49.500000000062,47.,47.));
#360 = VECTOR('',#361,1.);
#361 = DIRECTION('',(-1.,0.,0.));
#362 = ORIENTED_EDGE('',*,*,#363,.T.);
#363 = EDGE_CURVE('',#356,#364,#366,.T.);
#364 = VERTEX_POINT('',#365);
#365 = CARTESIAN_POINT('',(-49.5,10.,47.));
#366 = LINE('',#367,#368);
#367 = CARTESIAN_POINT('',(-49.5,47.,47.));
#368 = VECTOR('',#369,1.);
#369 = DIRECTION('',(0.,-1.,0.));
#370 = ORIENTED_EDGE('',*,*,#371,.F.);
#371 = EDGE_CURVE('',#372,#364,#374,.T.);
#372 = VERTEX_POINT('',#373);
#373 = CARTESIAN_POINT('',(-49.3,10.,47.));
#374 = LINE('',#375,#376);
#375 = CARTESIAN_POINT('',(-49.3,10.,47.));
#376 = VECTOR('',#377,1.);
#377 = DIRECTION('',(-1.,0.,0.));
#378 = ORIENTED_EDGE('',*,*,#379,.F.);
#379 = EDGE_CURVE('',#380,#372,#382,.T.);
#380 = VERTEX_POINT('',#381);
#381 = CARTESIAN_POINT('',(-49.3,-10.,47.));
#382 = LINE('',#383,#384);
#383 = CARTESIAN_POINT('',(-49.3,-10.,47.));
#384 = VECTOR('',#385,1.);
#385 = DIRECTION('',(0.,1.,-2.2E-16));
#386 = ORIENTED_EDGE('',*,*,#387,.T.);
#387 = EDGE_CURVE('',#380,#388,#390,.T.);
#388 = VERTEX_POINT('',#389);
#389 = CARTESIAN_POINT('',(-49.5,-10.,47.));
#390 = LINE('',#391,#392);
#391 = CARTESIAN_POINT('',(-49.3,-10.,47.));
#392 = VECTOR('',#393,1.);
#393 = DIRECTION('',(-1.,0.,0.));
#394 = ORIENTED_EDGE('',*,*,#395,.T.);
#395 = EDGE_CURVE('',#388,#306,#396,.T.);
#396 = LINE('',#397,#398);
#397 = CARTESIAN_POINT('',(-49.5,47.,47.));
#398 = VECTOR('',#399,1.);
#399 = DIRECTION('',(0.,-1.,0.));
#400 = PLANE('',#401);
#401 = AXIS2_PLACEMENT_3D('',#402,#403,#404);
#402 = CARTESIAN_POINT('',(0.,0.,47.));
#403 = DIRECTION('',(-0.,-0.,-1.));
#404 = DIRECTION('',(-1.,0.,0.));
#405 = ADVANCED_FACE('',(#406),#431,.T.);
#406 = FACE_BOUND('',#407,.T.);
#407 = EDGE_LOOP('',(#408,#416,#424,#430));
#408 = ORIENTED_EDGE('',*,*,#409,.T.);
#409 = EDGE_CURVE('',#306,#410,#412,.T.);
#410 = VERTEX_POINT('',#411);
#411 = CARTESIAN_POINT('',(-49.5,-46.99999999996,55.));
#412 = LINE('',#413,#414);
#413 = CARTESIAN_POINT('',(-49.5,-46.99999999996,47.));
#414 = VECTOR('',#415,1.);
#415 = DIRECTION('',(0.,0.,1.));
#416 = ORIENTED_EDGE('',*,*,#417,.T.);
#417 = EDGE_CURVE('',#410,#418,#420,.T.);
#418 = VERTEX_POINT('',#419);
#419 = CARTESIAN_POINT('',(49.500000000062,-46.99999999996,55.));
#420 = LINE('',#421,#422);
#421 = CARTESIAN_POINT('',(-49.5,-46.99999999996,55.));
#422 = VECTOR('',#423,1.);
#423 = DIRECTION('',(1.,0.,0.));
#424 = ORIENTED_EDGE('',*,*,#425,.F.);
#425 = EDGE_CURVE('',#308,#418,#426,.T.);
#426 = LINE('',#427,#428);
#427 = CARTESIAN_POINT('',(49.500000000062,-46.99999999996,47.));
#428 = VECTOR('',#429,1.);
#429 = DIRECTION('',(0.,0.,1.));
#430 = ORIENTED_EDGE('',*,*,#305,.F.);
#431 = PLANE('',#432);
#432 = AXIS2_PLACEMENT_3D('',#433,#434,#435);
#433 = CARTESIAN_POINT('',(-49.5,-46.99999999996,47.));
#434 = DIRECTION('',(0.,1.,0.));
#435 = DIRECTION('',(1.,0.,0.));
#436 = ADVANCED_FACE('',(#437),#478,.T.);
#437 = FACE_BOUND('',#438,.T.);
#438 = EDGE_LOOP('',(#439,#440,#448,#454,#455,#456,#464,#472));
#439 = ORIENTED_EDGE('',*,*,#363,.F.);
#440 = ORIENTED_EDGE('',*,*,#441,.T.);
#441 = EDGE_CURVE('',#356,#442,#444,.T.);
#442 = VERTEX_POINT('',#443);
#443 = CARTESIAN_POINT('',(-49.5,47.,55.));
#444 = LINE('',#445,#446);
#445 = CARTESIAN_POINT('',(-49.5,47.,47.));
#446 = VECTOR('',#447,1.);
#447 = DIRECTION('',(0.,0.,1.));
#448 = ORIENTED_EDGE('',*,*,#449,.T.);
#449 = EDGE_CURVE('',#442,#410,#450,.T.);
#450 = LINE('',#451,#452);
#451 = CARTESIAN_POINT('',(-49.5,47.,55.));
#452 = VECTOR('',#453,1.);
#453 = DIRECTION('',(0.,-1.,0.));
#454 = ORIENTED_EDGE('',*,*,#409,.F.);
#455 = ORIENTED_EDGE('',*,*,#395,.F.);
#456 = ORIENTED_EDGE('',*,*,#457,.T.);
#457 = EDGE_CURVE('',#388,#458,#460,.T.);
#458 = VERTEX_POINT('',#459);
#459 = CARTESIAN_POINT('',(-49.5,-10.,51.));
#460 = LINE('',#461,#462);
#461 = CARTESIAN_POINT('',(-49.5,-10.,47.003879790971));
#462 = VECTOR('',#463,1.);
#463 = DIRECTION('',(0.,0.,1.));
#464 = ORIENTED_EDGE('',*,*,#465,.T.);
#465 = EDGE_CURVE('',#458,#466,#468,.T.);
#466 = VERTEX_POINT('',#467);
#467 = CARTESIAN_POINT('',(-49.5,10.,51.));
#468 = LINE('',#469,#470);
#469 = CARTESIAN_POINT('',(-49.5,18.5,51.));
#470 = VECTOR('',#471,1.);
#471 = DIRECTION('',(0.,1.,-2.2E-16));
#472 = ORIENTED_EDGE('',*,*,#473,.F.);
#473 = EDGE_CURVE('',#364,#466,#474,.T.);
#474 = LINE('',#475,#476);
#475 = CARTESIAN_POINT('',(-49.5,10.,47.003879790971));
#476 = VECTOR('',#477,1.);
#477 = DIRECTION('',(0.,0.,1.));
#478 = PLANE('',#479);
#479 = AXIS2_PLACEMENT_3D('',#480,#481,#482);
#480 = CARTESIAN_POINT('',(-49.5,47.,47.));
#481 = DIRECTION('',(1.,0.,0.));
#482 = DIRECTION('',(0.,-1.,0.));
#483 = ADVANCED_FACE('',(#484),#550,.F.);
#484 = FACE_BOUND('',#485,.F.);
#485 = EDGE_LOOP('',(#486,#496,#504,#512,#520,#526,#527,#528,#536,#544)
  );
#486 = ORIENTED_EDGE('',*,*,#487,.T.);
#487 = EDGE_CURVE('',#488,#490,#492,.T.);
#488 = VERTEX_POINT('',#489);
#489 = CARTESIAN_POINT('',(-47.97647058823,-10.,42.67114756033));
#490 = VERTEX_POINT('',#491);
#491 = CARTESIAN_POINT('',(-49.3,-10.,43.8));
#492 = LINE('',#493,#494);
#493 = CARTESIAN_POINT('',(-47.97647058823,-10.,42.67114756033));
#494 = VECTOR('',#495,1.);
#495 = DIRECTION('',(-0.760845388546,0.,0.648933197432));
#496 = ORIENTED_EDGE('',*,*,#497,.T.);
#497 = EDGE_CURVE('',#490,#498,#500,.T.);
#498 = VERTEX_POINT('',#499);
#499 = CARTESIAN_POINT('',(-47.97647058823,-10.,44.55));
#500 = LINE('',#501,#502);
#501 = CARTESIAN_POINT('',(-49.3,-10.,43.8));
#502 = VECTOR('',#503,1.);
#503 = DIRECTION('',(0.870022185849,0.,0.493012571981));
#504 = ORIENTED_EDGE('',*,*,#505,.T.);
#505 = EDGE_CURVE('',#498,#506,#508,.T.);
#506 = VERTEX_POINT('',#507);
#507 = CARTESIAN_POINT('',(-47.97647058823,-10.,44.75));
#508 = LINE('',#509,#510);
#509 = CARTESIAN_POINT('',(-47.97647058823,-10.,44.55));
#510 = VECTOR('',#511,1.);
#511 = DIRECTION('',(0.,0.,1.));
#512 = ORIENTED_EDGE('',*,*,#513,.T.);
#513 = EDGE_CURVE('',#506,#514,#516,.T.);
#514 = VERTEX_POINT('',#515);
#515 = CARTESIAN_POINT('',(-49.3,-10.,45.5));
#516 = LINE('',#517,#518);
#517 = CARTESIAN_POINT('',(-47.97647058823,-10.,44.75));
#518 = VECTOR('',#519,1.);
#519 = DIRECTION('',(-0.870022185849,0.,0.493012571981));
#520 = ORIENTED_EDGE('',*,*,#521,.T.);
#521 = EDGE_CURVE('',#514,#380,#522,.T.);
#522 = LINE('',#523,#524);
#523 = CARTESIAN_POINT('',(-49.3,-10.,45.5));
#524 = VECTOR('',#525,1.);
#525 = DIRECTION('',(0.,0.,1.));
#526 = ORIENTED_EDGE('',*,*,#387,.T.);
#527 = ORIENTED_EDGE('',*,*,#457,.T.);
#528 = ORIENTED_EDGE('',*,*,#529,.T.);
#529 = EDGE_CURVE('',#458,#530,#532,.T.);
#530 = VERTEX_POINT('',#531);
#531 = CARTESIAN_POINT('',(-46.6,-10.,51.));
#532 = LINE('',#533,#534);
#533 = CARTESIAN_POINT('',(-49.6,-10.,51.));
#534 = VECTOR('',#535,1.);
#535 = DIRECTION('',(1.,0.,0.));
#536 = ORIENTED_EDGE('',*,*,#537,.T.);
#537 = EDGE_CURVE('',#530,#538,#540,.T.);
#538 = VERTEX_POINT('',#539);
#539 = CARTESIAN_POINT('',(-46.6,-10.,43.45114756033));
#540 = LINE('',#541,#542);
#541 = CARTESIAN_POINT('',(-46.6,-10.,51.));
#542 = VECTOR('',#543,1.);
#543 = DIRECTION('',(0.,0.,-1.));
#544 = ORIENTED_EDGE('',*,*,#545,.F.);
#545 = EDGE_CURVE('',#488,#538,#546,.T.);
#546 = LINE('',#547,#548);
#547 = CARTESIAN_POINT('',(-47.97647058823,-10.,42.67114756033));
#548 = VECTOR('',#549,1.);
#549 = DIRECTION('',(0.870022185849,0.,0.493012571981));
#550 = PLANE('',#551);
#551 = AXIS2_PLACEMENT_3D('',#552,#553,#554);
#552 = CARTESIAN_POINT('',(-48.01911124479,-10.,47.007759581942));
#553 = DIRECTION('',(0.,1.,0.));
#554 = DIRECTION('',(0.,0.,1.));
#555 = ADVANCED_FACE('',(#556),#574,.F.);
#556 = FACE_BOUND('',#557,.F.);
#557 = EDGE_LOOP('',(#558,#566,#572,#573));
#558 = ORIENTED_EDGE('',*,*,#559,.T.);
#559 = EDGE_CURVE('',#514,#560,#562,.T.);
#560 = VERTEX_POINT('',#561);
#561 = CARTESIAN_POINT('',(-49.3,10.,45.5));
#562 = LINE('',#563,#564);
#563 = CARTESIAN_POINT('',(-49.3,-10.,45.5));
#564 = VECTOR('',#565,1.);
#565 = DIRECTION('',(0.,1.,-2.2E-16));
#566 = ORIENTED_EDGE('',*,*,#567,.T.);
#567 = EDGE_CURVE('',#560,#372,#568,.T.);
#568 = LINE('',#569,#570);
#569 = CARTESIAN_POINT('',(-49.3,10.,45.5));
#570 = VECTOR('',#571,1.);
#571 = DIRECTION('',(0.,0.,1.));
#572 = ORIENTED_EDGE('',*,*,#379,.F.);
#573 = ORIENTED_EDGE('',*,*,#521,.F.);
#574 = PLANE('',#575);
#575 = AXIS2_PLACEMENT_3D('',#576,#577,#578);
#576 = CARTESIAN_POINT('',(-49.3,-10.,45.5));
#577 = DIRECTION('',(1.,0.,0.));
#578 = DIRECTION('',(0.,2.2E-16,1.));
#579 = ADVANCED_FACE('',(#580),#639,.T.);
#580 = FACE_BOUND('',#581,.T.);
#581 = EDGE_LOOP('',(#582,#592,#600,#608,#614,#615,#616,#617,#625,#633)
  );
#582 = ORIENTED_EDGE('',*,*,#583,.T.);
#583 = EDGE_CURVE('',#584,#586,#588,.T.);
#584 = VERTEX_POINT('',#585);
#585 = CARTESIAN_POINT('',(-47.97647058823,10.,42.67114756033));
#586 = VERTEX_POINT('',#587);
#587 = CARTESIAN_POINT('',(-49.3,10.,43.8));
#588 = LINE('',#589,#590);
#589 = CARTESIAN_POINT('',(-47.97647058823,10.,42.67114756033));
#590 = VECTOR('',#591,1.);
#591 = DIRECTION('',(-0.760845388546,0.,0.648933197432));
#592 = ORIENTED_EDGE('',*,*,#593,.T.);
#593 = EDGE_CURVE('',#586,#594,#596,.T.);
#594 = VERTEX_POINT('',#595);
#595 = CARTESIAN_POINT('',(-47.97647058823,10.,44.55));
#596 = LINE('',#597,#598);
#597 = CARTESIAN_POINT('',(-49.3,10.,43.8));
#598 = VECTOR('',#599,1.);
#599 = DIRECTION('',(0.870022185849,0.,0.493012571981));
#600 = ORIENTED_EDGE('',*,*,#601,.T.);
#601 = EDGE_CURVE('',#594,#602,#604,.T.);
#602 = VERTEX_POINT('',#603);
#603 = CARTESIAN_POINT('',(-47.97647058823,10.,44.75));
#604 = LINE('',#605,#606);
#605 = CARTESIAN_POINT('',(-47.97647058823,10.,44.55));
#606 = VECTOR('',#607,1.);
#607 = DIRECTION('',(0.,0.,1.));
#608 = ORIENTED_EDGE('',*,*,#609,.T.);
#609 = EDGE_CURVE('',#602,#560,#610,.T.);
#610 = LINE('',#611,#612);
#611 = CARTESIAN_POINT('',(-47.97647058823,10.,44.75));
#612 = VECTOR('',#613,1.);
#613 = DIRECTION('',(-0.870022185849,0.,0.493012571981));
#614 = ORIENTED_EDGE('',*,*,#567,.T.);
#615 = ORIENTED_EDGE('',*,*,#371,.T.);
#616 = ORIENTED_EDGE('',*,*,#473,.T.);
#617 = ORIENTED_EDGE('',*,*,#618,.T.);
#618 = EDGE_CURVE('',#466,#619,#621,.T.);
#619 = VERTEX_POINT('',#620);
#620 = CARTESIAN_POINT('',(-46.6,10.,51.));
#621 = LINE('',#622,#623);
#622 = CARTESIAN_POINT('',(-49.6,10.,51.));
#623 = VECTOR('',#624,1.);
#624 = DIRECTION('',(1.,0.,0.));
#625 = ORIENTED_EDGE('',*,*,#626,.T.);
#626 = EDGE_CURVE('',#619,#627,#629,.T.);
#627 = VERTEX_POINT('',#628);
#628 = CARTESIAN_POINT('',(-46.6,10.,43.45114756033));
#629 = LINE('',#630,#631);
#630 = CARTESIAN_POINT('',(-46.6,10.,51.));
#631 = VECTOR('',#632,1.);
#632 = DIRECTION('',(0.,0.,-1.));
#633 = ORIENTED_EDGE('',*,*,#634,.F.);
#634 = EDGE_CURVE('',#584,#627,#635,.T.);
#635 = LINE('',#636,#637);
#636 = CARTESIAN_POINT('',(-47.97647058823,10.,42.67114756033));
#637 = VECTOR('',#638,1.);
#638 = DIRECTION('',(0.870022185849,0.,0.493012571981));
#639 = PLANE('',#640);
#640 = AXIS2_PLACEMENT_3D('',#641,#642,#643);
#641 = CARTESIAN_POINT('',(-48.01911124479,10.,47.007759581942));
#642 = DIRECTION('',(0.,1.,0.));
#643 = DIRECTION('',(0.,0.,1.));
#644 = ADVANCED_FACE('',(#645),#663,.T.);
#645 = FACE_BOUND('',#646,.T.);
#646 = EDGE_LOOP('',(#647,#655,#661,#662));
#647 = ORIENTED_EDGE('',*,*,#648,.T.);
#648 = EDGE_CURVE('',#348,#649,#651,.T.);
#649 = VERTEX_POINT('',#650);
#650 = CARTESIAN_POINT('',(49.500000000062,47.,55.));
#651 = LINE('',#652,#653);
#652 = CARTESIAN_POINT('',(49.500000000062,47.,47.));
#653 = VECTOR('',#654,1.);
#654 = DIRECTION('',(0.,0.,1.));
#655 = ORIENTED_EDGE('',*,*,#656,.T.);
#656 = EDGE_CURVE('',#649,#442,#657,.T.);
#657 = LINE('',#658,#659);
#658 = CARTESIAN_POINT('',(49.500000000062,47.,55.));
#659 = VECTOR('',#660,1.);
#660 = DIRECTION('',(-1.,0.,0.));
#661 = ORIENTED_EDGE('',*,*,#441,.F.);
#662 = ORIENTED_EDGE('',*,*,#355,.F.);
#663 = PLANE('',#664);
#664 = AXIS2_PLACEMENT_3D('',#665,#666,#667);
#665 = CARTESIAN_POINT('',(49.500000000062,47.,47.));
#666 = DIRECTION('',(0.,-1.,0.));
#667 = DIRECTION('',(-1.,0.,0.));
#668 = ADVANCED_FACE('',(#669),#703,.T.);
#669 = FACE_BOUND('',#670,.T.);
#670 = EDGE_LOOP('',(#671,#672,#673,#679,#680,#681,#689,#697));
#671 = ORIENTED_EDGE('',*,*,#315,.F.);
#672 = ORIENTED_EDGE('',*,*,#425,.T.);
#673 = ORIENTED_EDGE('',*,*,#674,.T.);
#674 = EDGE_CURVE('',#418,#649,#675,.T.);
#675 = LINE('',#676,#677);
#676 = CARTESIAN_POINT('',(49.500000000062,-46.99999999996,55.));
#677 = VECTOR('',#678,1.);
#678 = DIRECTION('',(0.,1.,0.));
#679 = ORIENTED_EDGE('',*,*,#648,.F.);
#680 = ORIENTED_EDGE('',*,*,#347,.F.);
#681 = ORIENTED_EDGE('',*,*,#682,.T.);
#682 = EDGE_CURVE('',#340,#683,#685,.T.);
#683 = VERTEX_POINT('',#684);
#684 = CARTESIAN_POINT('',(49.500000000062,10.,51.));
#685 = LINE('',#686,#687);
#686 = CARTESIAN_POINT('',(49.500000000062,10.,47.003879790971));
#687 = VECTOR('',#688,1.);
#688 = DIRECTION('',(0.,-0.,1.));
#689 = ORIENTED_EDGE('',*,*,#690,.F.);
#690 = EDGE_CURVE('',#691,#683,#693,.T.);
#691 = VERTEX_POINT('',#692);
#692 = CARTESIAN_POINT('',(49.500000000062,-10.,51.));
#693 = LINE('',#694,#695);
#694 = CARTESIAN_POINT('',(49.500000000062,-28.49999999998,51.));
#695 = VECTOR('',#696,1.);
#696 = DIRECTION('',(0.,1.,-2.2E-16));
#697 = ORIENTED_EDGE('',*,*,#698,.F.);
#698 = EDGE_CURVE('',#316,#691,#699,.T.);
#699 = LINE('',#700,#701);
#700 = CARTESIAN_POINT('',(49.500000000062,-10.,47.003879790971));
#701 = VECTOR('',#702,1.);
#702 = DIRECTION('',(0.,-0.,1.));
#703 = PLANE('',#704);
#704 = AXIS2_PLACEMENT_3D('',#705,#706,#707);
#705 = CARTESIAN_POINT('',(49.500000000062,-46.99999999996,47.));
#706 = DIRECTION('',(-1.,0.,0.));
#707 = DIRECTION('',(0.,1.,0.));
#708 = ADVANCED_FACE('',(#709),#715,.F.);
#709 = FACE_BOUND('',#710,.F.);
#710 = EDGE_LOOP('',(#711,#712,#713,#714));
#711 = ORIENTED_EDGE('',*,*,#674,.T.);
#712 = ORIENTED_EDGE('',*,*,#656,.T.);
#713 = ORIENTED_EDGE('',*,*,#449,.T.);
#714 = ORIENTED_EDGE('',*,*,#417,.T.);
#715 = PLANE('',#716);
#716 = AXIS2_PLACEMENT_3D('',#717,#718,#719);
#717 = CARTESIAN_POINT('',(3.094756E-11,1.531768E-11,55.));
#718 = DIRECTION('',(0.,0.,1.));
#719 = DIRECTION('',(1.,0.,0.));
#720 = ADVANCED_FACE('',(#721),#732,.F.);
#721 = FACE_BOUND('',#722,.F.);
#722 = EDGE_LOOP('',(#723,#724,#725,#726));
#723 = ORIENTED_EDGE('',*,*,#529,.F.);
#724 = ORIENTED_EDGE('',*,*,#465,.T.);
#725 = ORIENTED_EDGE('',*,*,#618,.T.);
#726 = ORIENTED_EDGE('',*,*,#727,.F.);
#727 = EDGE_CURVE('',#530,#619,#728,.T.);
#728 = LINE('',#729,#730);
#729 = CARTESIAN_POINT('',(-46.6,-10.,51.));
#730 = VECTOR('',#731,1.);
#731 = DIRECTION('',(0.,1.,-2.2E-16));
#732 = PLANE('',#733);
#733 = AXIS2_PLACEMENT_3D('',#734,#735,#736);
#734 = CARTESIAN_POINT('',(-49.6,-10.,51.));
#735 = DIRECTION('',(0.,-2.2E-16,-1.));
#736 = DIRECTION('',(1.,0.,0.));
#737 = ADVANCED_FACE('',(#738),#754,.F.);
#738 = FACE_BOUND('',#739,.F.);
#739 = EDGE_LOOP('',(#740,#746,#747,#753));
#740 = ORIENTED_EDGE('',*,*,#741,.T.);
#741 = EDGE_CURVE('',#488,#584,#742,.T.);
#742 = LINE('',#743,#744);
#743 = CARTESIAN_POINT('',(-47.97647058823,-10.,42.67114756033));
#744 = VECTOR('',#745,1.);
#745 = DIRECTION('',(0.,1.,-2.2E-16));
#746 = ORIENTED_EDGE('',*,*,#583,.T.);
#747 = ORIENTED_EDGE('',*,*,#748,.F.);
#748 = EDGE_CURVE('',#490,#586,#749,.T.);
#749 = LINE('',#750,#751);
#750 = CARTESIAN_POINT('',(-49.3,-10.,43.8));
#751 = VECTOR('',#752,1.);
#752 = DIRECTION('',(0.,1.,-2.2E-16));
#753 = ORIENTED_EDGE('',*,*,#487,.F.);
#754 = PLANE('',#755);
#755 = AXIS2_PLACEMENT_3D('',#756,#757,#758);
#756 = CARTESIAN_POINT('',(-47.97647058823,-10.,42.67114756033));
#757 = DIRECTION('',(0.648933197432,1.7E-16,0.760845388546));
#758 = DIRECTION('',(-0.760845388546,1.4E-16,0.648933197432));
#759 = ADVANCED_FACE('',(#760),#771,.T.);
#760 = FACE_BOUND('',#761,.T.);
#761 = EDGE_LOOP('',(#762,#763,#764,#770));
#762 = ORIENTED_EDGE('',*,*,#741,.T.);
#763 = ORIENTED_EDGE('',*,*,#634,.T.);
#764 = ORIENTED_EDGE('',*,*,#765,.F.);
#765 = EDGE_CURVE('',#538,#627,#766,.T.);
#766 = LINE('',#767,#768);
#767 = CARTESIAN_POINT('',(-46.6,-10.,43.45114756033));
#768 = VECTOR('',#769,1.);
#769 = DIRECTION('',(0.,1.,-2.2E-16));
#770 = ORIENTED_EDGE('',*,*,#545,.F.);
#771 = PLANE('',#772);
#772 = AXIS2_PLACEMENT_3D('',#773,#774,#775);
#773 = CARTESIAN_POINT('',(-47.97647058823,-10.,42.67114756033));
#774 = DIRECTION('',(0.493012571981,-1.9E-16,-0.870022185849));
#775 = DIRECTION('',(0.870022185849,1.1E-16,0.493012571981));
#776 = ADVANCED_FACE('',(#777),#783,.F.);
#777 = FACE_BOUND('',#778,.F.);
#778 = EDGE_LOOP('',(#779,#780,#781,#782));
#779 = ORIENTED_EDGE('',*,*,#727,.T.);
#780 = ORIENTED_EDGE('',*,*,#626,.T.);
#781 = ORIENTED_EDGE('',*,*,#765,.F.);
#782 = ORIENTED_EDGE('',*,*,#537,.F.);
#783 = PLANE('',#784);
#784 = AXIS2_PLACEMENT_3D('',#785,#786,#787);
#785 = CARTESIAN_POINT('',(-46.6,-10.,51.));
#786 = DIRECTION('',(-1.,0.,0.));
#787 = DIRECTION('',(-0.,-2.2E-16,-1.));
#788 = ADVANCED_FACE('',(#789),#800,.F.);
#789 = FACE_BOUND('',#790,.F.);
#790 = EDGE_LOOP('',(#791,#797,#798,#799));
#791 = ORIENTED_EDGE('',*,*,#792,.T.);
#792 = EDGE_CURVE('',#506,#602,#793,.T.);
#793 = LINE('',#794,#795);
#794 = CARTESIAN_POINT('',(-47.97647058823,-10.,44.75));
#795 = VECTOR('',#796,1.);
#796 = DIRECTION('',(0.,1.,-2.2E-16));
#797 = ORIENTED_EDGE('',*,*,#609,.T.);
#798 = ORIENTED_EDGE('',*,*,#559,.F.);
#799 = ORIENTED_EDGE('',*,*,#513,.F.);
#800 = PLANE('',#801);
#801 = AXIS2_PLACEMENT_3D('',#802,#803,#804);
#802 = CARTESIAN_POINT('',(-47.97647058823,-10.,44.75));
#803 = DIRECTION('',(0.493012571981,1.9E-16,0.870022185849));
#804 = DIRECTION('',(-0.870022185849,1.1E-16,0.493012571981));
#805 = ADVANCED_FACE('',(#806),#817,.F.);
#806 = FACE_BOUND('',#807,.F.);
#807 = EDGE_LOOP('',(#808,#814,#815,#816));
#808 = ORIENTED_EDGE('',*,*,#809,.T.);
#809 = EDGE_CURVE('',#498,#594,#810,.T.);
#810 = LINE('',#811,#812);
#811 = CARTESIAN_POINT('',(-47.97647058823,-10.,44.55));
#812 = VECTOR('',#813,1.);
#813 = DIRECTION('',(0.,1.,-2.2E-16));
#814 = ORIENTED_EDGE('',*,*,#601,.T.);
#815 = ORIENTED_EDGE('',*,*,#792,.F.);
#816 = ORIENTED_EDGE('',*,*,#505,.F.);
#817 = PLANE('',#818);
#818 = AXIS2_PLACEMENT_3D('',#819,#820,#821);
#819 = CARTESIAN_POINT('',(-47.97647058823,-10.,44.55));
#820 = DIRECTION('',(1.,0.,0.));
#821 = DIRECTION('',(0.,2.2E-16,1.));
#822 = ADVANCED_FACE('',(#823),#829,.F.);
#823 = FACE_BOUND('',#824,.F.);
#824 = EDGE_LOOP('',(#825,#826,#827,#828));
#825 = ORIENTED_EDGE('',*,*,#748,.T.);
#826 = ORIENTED_EDGE('',*,*,#593,.T.);
#827 = ORIENTED_EDGE('',*,*,#809,.F.);
#828 = ORIENTED_EDGE('',*,*,#497,.F.);
#829 = PLANE('',#830);
#830 = AXIS2_PLACEMENT_3D('',#831,#832,#833);
#831 = CARTESIAN_POINT('',(-49.3,-10.,43.8));
#832 = DIRECTION('',(0.493012571981,-1.9E-16,-0.870022185849));
#833 = DIRECTION('',(0.870022185849,1.1E-16,0.493012571981));
#834 = ADVANCED_FACE('',(#835),#901,.F.);
#835 = FACE_BOUND('',#836,.T.);
#836 = EDGE_LOOP('',(#837,#847,#855,#863,#871,#877,#878,#879,#887,#895)
  );
#837 = ORIENTED_EDGE('',*,*,#838,.T.);
#838 = EDGE_CURVE('',#839,#841,#843,.T.);
#839 = VERTEX_POINT('',#840);
#840 = CARTESIAN_POINT('',(47.976470588235,-10.,42.67114756033));
#841 = VERTEX_POINT('',#842);
#842 = CARTESIAN_POINT('',(49.3,-10.,43.8));
#843 = LINE('',#844,#845);
#844 = CARTESIAN_POINT('',(47.976470588235,-10.,42.67114756033));
#845 = VECTOR('',#846,1.);
#846 = DIRECTION('',(0.760845388546,-1.7E-16,0.648933197432));
#847 = ORIENTED_EDGE('',*,*,#848,.T.);
#848 = EDGE_CURVE('',#841,#849,#851,.T.);
#849 = VERTEX_POINT('',#850);
#850 = CARTESIAN_POINT('',(47.976470588235,-10.,44.55));
#851 = LINE('',#852,#853);
#852 = CARTESIAN_POINT('',(49.3,-10.,43.8));
#853 = VECTOR('',#854,1.);
#854 = DIRECTION('',(-0.870022185849,1.9E-16,0.493012571981));
#855 = ORIENTED_EDGE('',*,*,#856,.T.);
#856 = EDGE_CURVE('',#849,#857,#859,.T.);
#857 = VERTEX_POINT('',#858);
#858 = CARTESIAN_POINT('',(47.976470588235,-10.,44.75));
#859 = LINE('',#860,#861);
#860 = CARTESIAN_POINT('',(47.976470588235,-10.,44.55));
#861 = VECTOR('',#862,1.);
#862 = DIRECTION('',(-2.2E-16,0.,1.));
#863 = ORIENTED_EDGE('',*,*,#864,.T.);
#864 = EDGE_CURVE('',#857,#865,#867,.T.);
#865 = VERTEX_POINT('',#866);
#866 = CARTESIAN_POINT('',(49.3,-10.,45.5));
#867 = LINE('',#868,#869);
#868 = CARTESIAN_POINT('',(47.976470588235,-10.,44.75));
#869 = VECTOR('',#870,1.);
#870 = DIRECTION('',(0.870022185849,-1.9E-16,0.493012571981));
#871 = ORIENTED_EDGE('',*,*,#872,.T.);
#872 = EDGE_CURVE('',#865,#324,#873,.T.);
#873 = LINE('',#874,#875);
#874 = CARTESIAN_POINT('',(49.3,-10.,45.5));
#875 = VECTOR('',#876,1.);
#876 = DIRECTION('',(-2.2E-16,0.,1.));
#877 = ORIENTED_EDGE('',*,*,#323,.T.);
#878 = ORIENTED_EDGE('',*,*,#698,.T.);
#879 = ORIENTED_EDGE('',*,*,#880,.T.);
#880 = EDGE_CURVE('',#691,#881,#883,.T.);
#881 = VERTEX_POINT('',#882);
#882 = CARTESIAN_POINT('',(46.6,-10.,51.));
#883 = LINE('',#884,#885);
#884 = CARTESIAN_POINT('',(49.6,-10.,51.));
#885 = VECTOR('',#886,1.);
#886 = DIRECTION('',(-1.,2.2E-16,-2.2E-16));
#887 = ORIENTED_EDGE('',*,*,#888,.T.);
#888 = EDGE_CURVE('',#881,#889,#891,.T.);
#889 = VERTEX_POINT('',#890);
#890 = CARTESIAN_POINT('',(46.6,-10.,43.45114756033));
#891 = LINE('',#892,#893);
#892 = CARTESIAN_POINT('',(46.6,-10.,51.));
#893 = VECTOR('',#894,1.);
#894 = DIRECTION('',(2.2E-16,0.,-1.));
#895 = ORIENTED_EDGE('',*,*,#896,.F.);
#896 = EDGE_CURVE('',#839,#889,#897,.T.);
#897 = LINE('',#898,#899);
#898 = CARTESIAN_POINT('',(47.976470588235,-10.,42.67114756033));
#899 = VECTOR('',#900,1.);
#900 = DIRECTION('',(-0.870022185849,1.9E-16,0.493012571981));
#901 = PLANE('',#902);
#902 = AXIS2_PLACEMENT_3D('',#903,#904,#905);
#903 = CARTESIAN_POINT('',(48.019111244794,-10.,47.007759581942));
#904 = DIRECTION('',(2.2E-16,1.,0.));
#905 = DIRECTION('',(2.2E-16,-4.84E-32,-1.));
#906 = ADVANCED_FACE('',(#907),#925,.F.);
#907 = FACE_BOUND('',#908,.T.);
#908 = EDGE_LOOP('',(#909,#910,#911,#919));
#909 = ORIENTED_EDGE('',*,*,#880,.F.);
#910 = ORIENTED_EDGE('',*,*,#690,.T.);
#911 = ORIENTED_EDGE('',*,*,#912,.T.);
#912 = EDGE_CURVE('',#683,#913,#915,.T.);
#913 = VERTEX_POINT('',#914);
#914 = CARTESIAN_POINT('',(46.6,10.,51.));
#915 = LINE('',#916,#917);
#916 = CARTESIAN_POINT('',(49.6,10.,51.));
#917 = VECTOR('',#918,1.);
#918 = DIRECTION('',(-1.,2.2E-16,-2.2E-16));
#919 = ORIENTED_EDGE('',*,*,#920,.F.);
#920 = EDGE_CURVE('',#881,#913,#921,.T.);
#921 = LINE('',#922,#923);
#922 = CARTESIAN_POINT('',(46.6,-10.,51.));
#923 = VECTOR('',#924,1.);
#924 = DIRECTION('',(2.2E-16,1.,-2.2E-16));
#925 = PLANE('',#926);
#926 = AXIS2_PLACEMENT_3D('',#927,#928,#929);
#927 = CARTESIAN_POINT('',(49.6,-10.,51.));
#928 = DIRECTION('',(2.2E-16,-2.2E-16,-1.));
#929 = DIRECTION('',(1.,-2.2E-16,2.2E-16));
#930 = ADVANCED_FACE('',(#931),#990,.T.);
#931 = FACE_BOUND('',#932,.F.);
#932 = EDGE_LOOP('',(#933,#943,#951,#959,#967,#973,#974,#975,#976,#984)
  );
#933 = ORIENTED_EDGE('',*,*,#934,.T.);
#934 = EDGE_CURVE('',#935,#937,#939,.T.);
#935 = VERTEX_POINT('',#936);
#936 = CARTESIAN_POINT('',(47.976470588235,10.,42.67114756033));
#937 = VERTEX_POINT('',#938);
#938 = CARTESIAN_POINT('',(49.3,10.,43.8));
#939 = LINE('',#940,#941);
#940 = CARTESIAN_POINT('',(47.976470588235,10.,42.67114756033));
#941 = VECTOR('',#942,1.);
#942 = DIRECTION('',(0.760845388546,-1.7E-16,0.648933197432));
#943 = ORIENTED_EDGE('',*,*,#944,.T.);
#944 = EDGE_CURVE('',#937,#945,#947,.T.);
#945 = VERTEX_POINT('',#946);
#946 = CARTESIAN_POINT('',(47.976470588235,10.,44.55));
#947 = LINE('',#948,#949);
#948 = CARTESIAN_POINT('',(49.3,10.,43.8));
#949 = VECTOR('',#950,1.);
#950 = DIRECTION('',(-0.870022185849,1.9E-16,0.493012571981));
#951 = ORIENTED_EDGE('',*,*,#952,.T.);
#952 = EDGE_CURVE('',#945,#953,#955,.T.);
#953 = VERTEX_POINT('',#954);
#954 = CARTESIAN_POINT('',(47.976470588235,10.,44.75));
#955 = LINE('',#956,#957);
#956 = CARTESIAN_POINT('',(47.976470588235,10.,44.55));
#957 = VECTOR('',#958,1.);
#958 = DIRECTION('',(-2.2E-16,0.,1.));
#959 = ORIENTED_EDGE('',*,*,#960,.T.);
#960 = EDGE_CURVE('',#953,#961,#963,.T.);
#961 = VERTEX_POINT('',#962);
#962 = CARTESIAN_POINT('',(49.3,10.,45.5));
#963 = LINE('',#964,#965);
#964 = CARTESIAN_POINT('',(47.976470588235,10.,44.75));
#965 = VECTOR('',#966,1.);
#966 = DIRECTION('',(0.870022185849,-1.9E-16,0.493012571981));
#967 = ORIENTED_EDGE('',*,*,#968,.T.);
#968 = EDGE_CURVE('',#961,#332,#969,.T.);
#969 = LINE('',#970,#971);
#970 = CARTESIAN_POINT('',(49.3,10.,45.5));
#971 = VECTOR('',#972,1.);
#972 = DIRECTION('',(-2.2E-16,0.,1.));
#973 = ORIENTED_EDGE('',*,*,#339,.T.);
#974 = ORIENTED_EDGE('',*,*,#682,.T.);
#975 = ORIENTED_EDGE('',*,*,#912,.T.);
#976 = ORIENTED_EDGE('',*,*,#977,.T.);
#977 = EDGE_CURVE('',#913,#978,#980,.T.);
#978 = VERTEX_POINT('',#979);
#979 = CARTESIAN_POINT('',(46.6,10.,43.45114756033));
#980 = LINE('',#981,#982);
#981 = CARTESIAN_POINT('',(46.6,10.,51.));
#982 = VECTOR('',#983,1.);
#983 = DIRECTION('',(2.2E-16,0.,-1.));
#984 = ORIENTED_EDGE('',*,*,#985,.F.);
#985 = EDGE_CURVE('',#935,#978,#986,.T.);
#986 = LINE('',#987,#988);
#987 = CARTESIAN_POINT('',(47.976470588235,10.,42.67114756033));
#988 = VECTOR('',#989,1.);
#989 = DIRECTION('',(-0.870022185849,1.9E-16,0.493012571981));
#990 = PLANE('',#991);
#991 = AXIS2_PLACEMENT_3D('',#992,#993,#994);
#992 = CARTESIAN_POINT('',(48.019111244794,10.,47.007759581942));
#993 = DIRECTION('',(2.2E-16,1.,0.));
#994 = DIRECTION('',(2.2E-16,-4.84E-32,-1.));
#995 = ADVANCED_FACE('',(#996),#1012,.F.);
#996 = FACE_BOUND('',#997,.T.);
#997 = EDGE_LOOP('',(#998,#1004,#1005,#1011));
#998 = ORIENTED_EDGE('',*,*,#999,.T.);
#999 = EDGE_CURVE('',#839,#935,#1000,.T.);
#1000 = LINE('',#1001,#1002);
#1001 = CARTESIAN_POINT('',(47.976470588235,-10.,42.67114756033));
#1002 = VECTOR('',#1003,1.);
#1003 = DIRECTION('',(2.2E-16,1.,-2.2E-16));
#1004 = ORIENTED_EDGE('',*,*,#934,.T.);
#1005 = ORIENTED_EDGE('',*,*,#1006,.F.);
#1006 = EDGE_CURVE('',#841,#937,#1007,.T.);
#1007 = LINE('',#1008,#1009);
#1008 = CARTESIAN_POINT('',(49.3,-10.,43.8));
#1009 = VECTOR('',#1010,1.);
#1010 = DIRECTION('',(2.2E-16,1.,-2.2E-16));
#1011 = ORIENTED_EDGE('',*,*,#838,.F.);
#1012 = PLANE('',#1013);
#1013 = AXIS2_PLACEMENT_3D('',#1014,#1015,#1016);
#1014 = CARTESIAN_POINT('',(47.976470588235,-10.,42.67114756033));
#1015 = DIRECTION('',(-0.648933197432,3.1E-16,0.760845388546));
#1016 = DIRECTION('',(-0.760845388546,2.E-17,-0.648933197432));
#1017 = ADVANCED_FACE('',(#1018),#1029,.T.);
#1018 = FACE_BOUND('',#1019,.F.);
#1019 = EDGE_LOOP('',(#1020,#1021,#1022,#1028));
#1020 = ORIENTED_EDGE('',*,*,#999,.T.);
#1021 = ORIENTED_EDGE('',*,*,#985,.T.);
#1022 = ORIENTED_EDGE('',*,*,#1023,.F.);
#1023 = EDGE_CURVE('',#889,#978,#1024,.T.);
#1024 = LINE('',#1025,#1026);
#1025 = CARTESIAN_POINT('',(46.6,-10.,43.45114756033));
#1026 = VECTOR('',#1027,1.);
#1027 = DIRECTION('',(2.2E-16,1.,-2.2E-16));
#1028 = ORIENTED_EDGE('',*,*,#896,.F.);
#1029 = PLANE('',#1030);
#1030 = AXIS2_PLACEMENT_3D('',#1031,#1032,#1033);
#1031 = CARTESIAN_POINT('',(47.976470588235,-10.,42.67114756033));
#1032 = DIRECTION('',(-0.493012571981,-8.E-17,-0.870022185849));
#1033 = DIRECTION('',(0.870022185849,-3.E-16,-0.493012571981));
#1034 = ADVANCED_FACE('',(#1035),#1041,.F.);
#1035 = FACE_BOUND('',#1036,.T.);
#1036 = EDGE_LOOP('',(#1037,#1038,#1039,#1040));
#1037 = ORIENTED_EDGE('',*,*,#920,.T.);
#1038 = ORIENTED_EDGE('',*,*,#977,.T.);
#1039 = ORIENTED_EDGE('',*,*,#1023,.F.);
#1040 = ORIENTED_EDGE('',*,*,#888,.F.);
#1041 = PLANE('',#1042);
#1042 = AXIS2_PLACEMENT_3D('',#1043,#1044,#1045);
#1043 = CARTESIAN_POINT('',(46.6,-10.,51.));
#1044 = DIRECTION('',(1.,-2.2E-16,2.2E-16));
#1045 = DIRECTION('',(-2.2E-16,2.2E-16,1.));
#1046 = ADVANCED_FACE('',(#1047),#1058,.F.);
#1047 = FACE_BOUND('',#1048,.T.);
#1048 = EDGE_LOOP('',(#1049,#1055,#1056,#1057));
#1049 = ORIENTED_EDGE('',*,*,#1050,.T.);
#1050 = EDGE_CURVE('',#865,#961,#1051,.T.);
#1051 = LINE('',#1052,#1053);
#1052 = CARTESIAN_POINT('',(49.3,-10.,45.5));
#1053 = VECTOR('',#1054,1.);
#1054 = DIRECTION('',(2.2E-16,1.,-2.2E-16));
#1055 = ORIENTED_EDGE('',*,*,#968,.T.);
#1056 = ORIENTED_EDGE('',*,*,#331,.F.);
#1057 = ORIENTED_EDGE('',*,*,#872,.F.);
#1058 = PLANE('',#1059);
#1059 = AXIS2_PLACEMENT_3D('',#1060,#1061,#1062);
#1060 = CARTESIAN_POINT('',(49.3,-10.,45.5));
#1061 = DIRECTION('',(-1.,2.2E-16,-2.2E-16));
#1062 = DIRECTION('',(2.2E-16,-2.2E-16,-1.));
#1063 = ADVANCED_FACE('',(#1064),#1075,.F.);
#1064 = FACE_BOUND('',#1065,.T.);
#1065 = EDGE_LOOP('',(#1066,#1072,#1073,#1074));
#1066 = ORIENTED_EDGE('',*,*,#1067,.T.);
#1067 = EDGE_CURVE('',#857,#953,#1068,.T.);
#1068 = LINE('',#1069,#1070);
#1069 = CARTESIAN_POINT('',(47.976470588235,-10.,44.75));
#1070 = VECTOR('',#1071,1.);
#1071 = DIRECTION('',(2.2E-16,1.,-2.2E-16));
#1072 = ORIENTED_EDGE('',*,*,#960,.T.);
#1073 = ORIENTED_EDGE('',*,*,#1050,.F.);
#1074 = ORIENTED_EDGE('',*,*,#864,.F.);
#1075 = PLANE('',#1076);
#1076 = AXIS2_PLACEMENT_3D('',#1077,#1078,#1079);
#1077 = CARTESIAN_POINT('',(47.976470588235,-10.,44.75));
#1078 = DIRECTION('',(-0.493012571981,3.E-16,0.870022185849));
#1079 = DIRECTION('',(-0.870022185849,8.E-17,-0.493012571981));
#1080 = ADVANCED_FACE('',(#1081),#1092,.F.);
#1081 = FACE_BOUND('',#1082,.T.);
#1082 = EDGE_LOOP('',(#1083,#1089,#1090,#1091));
#1083 = ORIENTED_EDGE('',*,*,#1084,.T.);
#1084 = EDGE_CURVE('',#849,#945,#1085,.T.);
#1085 = LINE('',#1086,#1087);
#1086 = CARTESIAN_POINT('',(47.976470588235,-10.,44.55));
#1087 = VECTOR('',#1088,1.);
#1088 = DIRECTION('',(2.2E-16,1.,-2.2E-16));
#1089 = ORIENTED_EDGE('',*,*,#952,.T.);
#1090 = ORIENTED_EDGE('',*,*,#1067,.F.);
#1091 = ORIENTED_EDGE('',*,*,#856,.F.);
#1092 = PLANE('',#1093);
#1093 = AXIS2_PLACEMENT_3D('',#1094,#1095,#1096);
#1094 = CARTESIAN_POINT('',(47.976470588235,-10.,44.55));
#1095 = DIRECTION('',(-1.,2.2E-16,-2.2E-16));
#1096 = DIRECTION('',(2.2E-16,-2.2E-16,-1.));
#1097 = ADVANCED_FACE('',(#1098),#1104,.F.);
#1098 = FACE_BOUND('',#1099,.T.);
#1099 = EDGE_LOOP('',(#1100,#1101,#1102,#1103));
#1100 = ORIENTED_EDGE('',*,*,#1006,.T.);
#1101 = ORIENTED_EDGE('',*,*,#944,.T.);
#1102 = ORIENTED_EDGE('',*,*,#1084,.F.);
#1103 = ORIENTED_EDGE('',*,*,#848,.F.);
#1104 = PLANE('',#1105);
#1105 = AXIS2_PLACEMENT_3D('',#1106,#1107,#1108);
#1106 = CARTESIAN_POINT('',(49.3,-10.,43.8));
#1107 = DIRECTION('',(-0.493012571981,-8.E-17,-0.870022185849));
#1108 = DIRECTION('',(0.870022185849,-3.E-16,-0.493012571981));
#1109 = ( GEOMETRIC_REPRESENTATION_CONTEXT(3) 
GLOBAL_UNCERTAINTY_ASSIGNED_CONTEXT((#1113)) 
GLOBAL_UNIT_ASSIGNED_CONTEXT((#1110,#1111,#1112)) REPRESENTATION_CONTEXT
('Context #1','3D Context with UNIT and UNCERTAINTY') );
#1110 = ( LENGTH_UNIT() NAMED_UNIT(*) SI_UNIT(.MILLI.,.METRE.) );
#1111 = ( NAMED_UNIT(*) PLANE_ANGLE_UNIT() SI_UNIT($,.RADIAN.) );
#1112 = ( NAMED_UNIT(*) SI_UNIT($,.STERADIAN.) SOLID_ANGLE_UNIT() );
#1113 = UNCERTAINTY_MEASURE_WITH_UNIT(LENGTH_MEASURE(1.E-05),#1110,
  'distance_accuracy_value','confusion accuracy');
#1114 = PRODUCT_RELATED_PRODUCT_CATEGORY('part',$,(#7));
#1115 = MECHANICAL_DESIGN_GEOMETRIC_PRESENTATION_REPRESENTATION('',(
    #1116),#1109);
#1116 = STYLED_ITEM('color',(#1117),#15);
#1117 = PRESENTATION_STYLE_ASSIGNMENT((#1118,#1126));
#1118 = SURFACE_STYLE_USAGE(.BOTH.,#1119);
#1119 = SURFACE_SIDE_STYLE('',(#1120,#1124));
#1120 = SURFACE_STYLE_FILL_AREA(#1121);
#1121 = FILL_AREA_STYLE('',(#1122));
#1122 = FILL_AREA_STYLE_COLOUR('',#1123);
#1123 = COLOUR_RGB('',0.800000010877,0.800000010877,0.901960800373);
#1124 = SURFACE_STYLE_RENDERING_WITH_PROPERTIES(.NORMAL_SHADING.,#1123,(
    #1125));
#1125 = SURFACE_STYLE_TRANSPARENT(0.699999988079);
#1126 = CURVE_STYLE('',#1127,POSITIVE_LENGTH_MEASURE(0.1),#1128);
#1127 = DRAUGHTING_PRE_DEFINED_CURVE_FONT('continuous');
#1128 = COLOUR_RGB('',9.803921802644E-02,9.803921802644E-02,
  9.803921802644E-02);
ENDSEC;
END-ISO-10303-21;
